<svg version="1.2" xmlns="http://www.w3.org/2000/svg" viewBox="0 0 99 56" width="99" height="56"><defs><linearGradient id="P" gradientUnits="userSpaceOnUse"/><linearGradient id="g1" x2="1" href="#P" gradientTransform="matrix(11.5,3,-5.299,20.313,58,24.5)"><stop stop-opacity=".25"/><stop offset=".91" stop-color="#fff" stop-opacity="0"/></linearGradient></defs><style>.a{fill:#fff}.b{fill:url(#g1)}.c{fill:#4338ca}</style><path class="a" d="m75.5 37.8l-10.7-34.4c-0.6-2-2.5-3.4-4.7-3.4-2.6 0-4.7 2.1-4.9 4.7l-1.3 25.6q0 1.4 0.3 2.7l5.9 19.5c0.5 1.7 2 2.9 3.8 2.9h5.4c1.8 0 3.3-1.2 3.8-2.8l2.4-7.6c0.8-2.3 0.8-4.8 0-7.2z"/><path class="b" d="m75.5 37.8l-10.7-34.4c-0.6-2-2.5-3.4-4.7-3.4-2.6 0-4.7 2.1-4.9 4.7l-1.3 25.6q0 1.4 0.3 2.7l5.9 19.5c0.5 1.7 2 2.9 3.8 2.9h5.4c1.8 0 3.3-1.2 3.8-2.8l2.4-7.6c0.8-2.3 0.8-4.8 0-7.2z"/><path class="c" d="m49.3 0h11c2.7 0 4.7 2.6 3.9 5.2l-14.9 47.7c-0.6 1.7-2.1 2.9-3.8 2.9h-11.1c-2.7 0-4.6-2.7-3.8-5.2l14.9-47.8c0.5-1.7 2.1-2.8 3.8-2.8z"/><path class="c" d="m23.3 0h11c2.7 0 4.7 2.6 3.9 5.2l-14.9 47.7c-0.6 1.7-2.1 2.9-3.8 2.9h-11.1c-2.7 0-4.6-2.7-3.8-5.2l14.9-47.8c0.5-1.7 2.1-2.8 3.8-2.8z"/><path class="c" d="m79.3 0h11c2.7 0 4.7 2.6 3.9 5.2l-14.9 47.7c-0.6 1.7-2.1 2.9-3.8 2.9h-11.1c-2.7 0-4.6-2.7-3.8-5.2l14.9-47.8c0.5-1.7 2.1-2.8 3.8-2.8z"/></svg>